<mxfile host="app.diagrams.net" modified="2023-11-14T07:15:14.582Z" agent="Mozilla/5.0 (Windows NT 10.0; Win64; x64) AppleWebKit/537.36 (KHTML, like Gecko) Chrome/119.0.0.0 Safari/537.36" etag="KBvUG9nARs2s3suRn69b" version="22.1.0" type="github">
  <diagram name="Page-1" id="of4GKgjrSyUVoc7WMMV5">
    <mxGraphModel dx="880" dy="478" grid="1" gridSize="10" guides="1" tooltips="1" connect="1" arrows="1" fold="1" page="1" pageScale="1" pageWidth="850" pageHeight="1100" math="0" shadow="0">
      <root>
        <mxCell id="0" />
        <mxCell id="1" parent="0" />
        <mxCell id="t5tVKxFCGbio5EtmX7Ya-2" value="" style="rounded=0;whiteSpace=wrap;html=1;" vertex="1" parent="1">
          <mxGeometry x="240" y="30" width="270" height="480" as="geometry" />
        </mxCell>
        <mxCell id="t5tVKxFCGbio5EtmX7Ya-5" value="" style="rounded=0;whiteSpace=wrap;html=1;" vertex="1" parent="1">
          <mxGeometry x="240" y="30" width="270" height="40" as="geometry" />
        </mxCell>
        <mxCell id="t5tVKxFCGbio5EtmX7Ya-6" value="START" style="ellipse;whiteSpace=wrap;html=1;" vertex="1" parent="1">
          <mxGeometry x="315" y="80" width="120" height="60" as="geometry" />
        </mxCell>
        <mxCell id="t5tVKxFCGbio5EtmX7Ya-12" value="" style="endArrow=classic;html=1;rounded=0;exitX=0.5;exitY=1;exitDx=0;exitDy=0;" edge="1" parent="1" source="t5tVKxFCGbio5EtmX7Ya-6">
          <mxGeometry width="50" height="50" relative="1" as="geometry">
            <mxPoint x="400" y="280" as="sourcePoint" />
            <mxPoint x="375" y="200" as="targetPoint" />
          </mxGeometry>
        </mxCell>
        <mxCell id="t5tVKxFCGbio5EtmX7Ya-13" value="NAMA, KEANGGOTAAN, KELAS, KEPERLUAN" style="shape=parallelogram;perimeter=parallelogramPerimeter;whiteSpace=wrap;html=1;fixedSize=1;" vertex="1" parent="1">
          <mxGeometry x="290" y="200" width="170" height="60" as="geometry" />
        </mxCell>
        <mxCell id="t5tVKxFCGbio5EtmX7Ya-24" value="FLOWCHART PERPUSTAKAN DIGTAL" style="text;html=1;strokeColor=none;fillColor=none;align=center;verticalAlign=middle;whiteSpace=wrap;rounded=0;" vertex="1" parent="1">
          <mxGeometry x="260" y="30" width="230" height="45" as="geometry" />
        </mxCell>
        <mxCell id="t5tVKxFCGbio5EtmX7Ya-26" value="NAMA" style="text;html=1;strokeColor=none;fillColor=none;align=center;verticalAlign=middle;whiteSpace=wrap;rounded=0;" vertex="1" parent="1">
          <mxGeometry x="350" y="330" width="60" height="30" as="geometry" />
        </mxCell>
        <mxCell id="t5tVKxFCGbio5EtmX7Ya-27" value="NAMA, KEANGGOTAAN, KELAS, KEPERLUAN" style="shape=parallelogram;perimeter=parallelogramPerimeter;whiteSpace=wrap;html=1;fixedSize=1;" vertex="1" parent="1">
          <mxGeometry x="290" y="310" width="170" height="60" as="geometry" />
        </mxCell>
        <mxCell id="t5tVKxFCGbio5EtmX7Ya-28" value="" style="endArrow=classic;html=1;rounded=0;" edge="1" parent="1">
          <mxGeometry width="50" height="50" relative="1" as="geometry">
            <mxPoint x="375" y="260" as="sourcePoint" />
            <mxPoint x="374.5" y="310" as="targetPoint" />
          </mxGeometry>
        </mxCell>
        <mxCell id="t5tVKxFCGbio5EtmX7Ya-29" value="" style="endArrow=classic;html=1;rounded=0;" edge="1" parent="1">
          <mxGeometry width="50" height="50" relative="1" as="geometry">
            <mxPoint x="375" y="370" as="sourcePoint" />
            <mxPoint x="374.5" y="420" as="targetPoint" />
          </mxGeometry>
        </mxCell>
        <mxCell id="t5tVKxFCGbio5EtmX7Ya-30" value="END" style="ellipse;whiteSpace=wrap;html=1;" vertex="1" parent="1">
          <mxGeometry x="315" y="420" width="120" height="60" as="geometry" />
        </mxCell>
      </root>
    </mxGraphModel>
  </diagram>
</mxfile>
